<svg viewBox="0 0 64 91" xmlns="http://www.w3.org/2000/svg" xmlns:xlink="http://www.w3.org/1999/xlink"><defs><path d="M2.503 72.645A14.892 14.892 0 011.4 67.022V31.978c0-4.567 2.098-8.886 5.698-11.732l16.193-12.8a15.164 15.164 0 019.419-3.268V49.3L2.503 72.645z" id="a"/></defs><g fill="none" fill-rule="evenodd"><g transform="translate(-1 -4)"><path d="M42.012 7.353l16.31 12.893a15 15 0 015.697 11.767v34.974a15 15 0 01-5.697 11.767l-16.31 12.893a15 15 0 01-18.604 0L7.098 78.754A15 15 0 011.4 66.987V32.013a15 15 0 015.698-11.767l16.31-12.893a15 15 0 0118.604 0z" fill="#FF3A47"/><use fill="#FF6B71" xlink:href="#a"/></g><path d="M61.642 21.723a14.897 14.897 0 011.377 6.255v35.044c0 4.567-2.097 8.886-5.697 11.732l-16.193 12.8a15.16 15.16 0 01-9.075 3.264V46.261c0-.23.104-.447.282-.593l29.306-23.945z" fill="#F12B37"/><path d="M31.71 18.19L49.6 31.845v27.31L31.71 72.81 13.819 59.155v-27.31z" fill="#FF3744"/></g></svg>